<?xml version="1.0" encoding="iso-8859-1"?>
<!-- Generator: Adobe Illustrator 19.0.0, SVG Export Plug-In . SVG Version: 6.00 Build 0)  -->
<svg version="1.1" id="Layer_1" xmlns="http://www.w3.org/2000/svg" xmlns:xlink="http://www.w3.org/1999/xlink" x="0px" y="0px"
	 viewBox="0 0 489.05 489.05" style="enable-background:new 0 0 489.05 489.05;" xml:space="preserve">
<g id="XMLID_709_">
	<g id="XMLID_618_">
		<path style="fill:#E9483D;" d="M433.709,286.552H169.963c-26.344,0-47.7-21.356-47.7-47.7V135.576c0-26.344,21.356-47.7,47.7-47.7
			h263.746c26.344,0,47.7,21.356,47.7,47.7v103.277C481.409,265.196,460.053,286.552,433.709,286.552z"/>
	</g>
	<g id="XMLID_562_">
		<path style="fill:#ED6D64;" d="M319.088,401.173H55.342c-26.344,0-47.7-21.356-47.7-47.7V250.197c0-26.344,21.356-47.7,47.7-47.7
			h263.747c26.344,0,47.7,21.356,47.7,47.7v103.277C366.788,379.817,345.432,401.173,319.088,401.173z"/>
	</g>
	<g id="XMLID_440_">
		<polygon style="fill:#FFFFFF;" points="30.566,393.532 12.195,373.82 12.195,217.219 30.566,210.139 		"/>
	</g>
	<g id="XMLID_665_">
		<rect x="122.263" y="133.725" style="fill:#F7931E;" width="359.146" height="38.207"/>
	</g>
	<g id="XMLID_435_">
		<rect x="122.263" y="133.725" style="fill:#FBB03B;" width="221.601" height="38.207"/>
	</g>
	<g id="XMLID_710_">
		<polygon style="fill:#FFFFFF;" points="145.188,202.497 129.904,202.497 129.904,100.312 145.188,95.517 		"/>
	</g>
	<g id="XMLID_649_">
		<circle style="fill:#F7931E;" cx="282.732" cy="255.988" r="22.924"/>
	</g>
	<path style="fill:#1D1D1B;" d="M436.393,80.234H167.279c-29.036,0-52.658,23.622-52.658,52.658v61.963H52.658
		C23.623,194.855,0,218.479,0,247.514v108.644c0,29.036,23.623,52.658,52.658,52.658h269.113c29.036,0,52.658-23.623,52.658-52.658
		v-61.963h61.963c29.036,0,52.658-23.622,52.658-52.658V132.893C489.051,103.856,465.429,80.234,436.393,80.234z M473.768,141.367
		v23.492H129.904v-23.492H473.768z M167.279,95.517h269.113c18.282,0,33.53,13.198,36.742,30.565H130.537
		C133.749,108.716,148.997,95.517,167.279,95.517z M359.147,356.157c0,20.609-16.767,37.375-37.375,37.375H52.658
		c-20.609,0-37.375-16.766-37.375-37.375V247.514c0-20.609,16.766-37.375,37.375-37.375h269.113
		c20.608,0,37.375,16.766,37.375,37.375v108.644H359.147z M436.393,278.911H374.43v-31.397c0-29.036-23.622-52.658-52.658-52.658
		H129.904v-14.714h343.863v61.395C473.768,262.145,457.001,278.911,436.393,278.911z"/>
	<g id="XMLID_106_">
		<g id="XMLID_281_">
			<rect x="45.849" y="317.118" style="fill:#1D1D1B;" width="45.849" height="15.283"/>
		</g>
		<g id="XMLID_110_">
			<rect x="106.98" y="317.118" style="fill:#1D1D1B;" width="45.849" height="15.283"/>
		</g>
		<g id="XMLID_112_">
			<rect x="168.111" y="317.118" style="fill:#1D1D1B;" width="45.849" height="15.283"/>
		</g>
		<g id="XMLID_113_">
			<rect x="229.243" y="317.118" style="fill:#1D1D1B;" width="45.848" height="15.283"/>
		</g>
		<g id="XMLID_114_">
			<rect x="45.849" y="347.683" style="fill:#1D1D1B;" width="129.904" height="15.283"/>
		</g>
	</g>
	<g id="XMLID_127_">
		<rect x="45.849" y="286.552" style="fill:#1D1D1B;" width="22.924" height="15.283"/>
	</g>
	<g id="XMLID_128_">
		<rect x="84.056" y="286.552" style="fill:#1D1D1B;" width="22.924" height="15.283"/>
	</g>
	<g id="XMLID_126_">
		<path style="fill:#1D1D1B;" d="M282.732,286.552c-16.854,0-30.565-13.712-30.565-30.566c0-16.854,13.712-30.565,30.565-30.565
			s30.565,13.712,30.565,30.565C313.298,272.84,299.586,286.552,282.732,286.552z M282.732,240.704
			c-8.427,0-15.282,6.855-15.282,15.282c0,8.427,6.855,15.283,15.282,15.283s15.282-6.855,15.282-15.283
			C298.015,247.561,291.159,240.704,282.732,240.704z"/>
	</g>
</g>
<g>
</g>
<g>
</g>
<g>
</g>
<g>
</g>
<g>
</g>
<g>
</g>
<g>
</g>
<g>
</g>
<g>
</g>
<g>
</g>
<g>
</g>
<g>
</g>
<g>
</g>
<g>
</g>
<g>
</g>
</svg>
