<?xml version="1.0" encoding="iso-8859-1"?>
<!-- Generator: Adobe Illustrator 19.0.0, SVG Export Plug-In . SVG Version: 6.00 Build 0)  -->
<svg version="1.1" id="Layer_1" xmlns="http://www.w3.org/2000/svg" xmlns:xlink="http://www.w3.org/1999/xlink" x="0px" y="0px"
	 viewBox="0 0 511.984 511.984" style="enable-background:new 0 0 511.984 511.984;" xml:space="preserve">
<path style="fill:#FFCE54;" d="M511.984,373.332c0,23.562-19.108,42.655-42.671,42.655H42.654C19.092,415.987,0,396.894,0,373.332
	V138.667c0-23.562,19.093-42.67,42.654-42.67h426.659c23.562,0,42.671,19.108,42.671,42.67L511.984,373.332L511.984,373.332z"/>
<g>
	<rect x="0" y="138.672" style="fill:#434A54;" width="511.98" height="63.999"/>
	<path style="fill:#434A54;" d="M149.323,319.99H53.326c-5.891,0-10.672,4.781-10.672,10.672s4.781,10.671,10.672,10.671h95.997
		c5.891,0,10.672-4.78,10.672-10.671S155.214,319.99,149.323,319.99z"/>
	<path style="fill:#434A54;" d="M245.32,277.335H53.326c-5.891,0-10.672,4.766-10.672,10.656c0,5.906,4.781,10.671,10.672,10.671
		H245.32c5.891,0,10.672-4.765,10.672-10.671C255.992,282.1,251.211,277.335,245.32,277.335z"/>
</g>
<g>
	<path style="fill:#ED5564;" d="M351.942,309.334c17.672,0,31.999-14.327,31.999-31.999c0-17.671-14.327-31.999-31.999-31.999
		c-17.688,0-31.999,14.328-31.999,31.999C319.943,295.007,334.255,309.334,351.942,309.334z M351.942,266.664
		c5.875,0,10.656,4.781,10.656,10.671c0,5.875-4.781,10.656-10.656,10.656c-5.891,0-10.672-4.781-10.672-10.656
		C341.27,271.445,346.052,266.664,351.942,266.664z"/>
	<path style="fill:#ED5564;" d="M415.94,309.334c-17.688,0-31.999,14.328-31.999,31.999c0,17.672,14.312,31.999,31.999,31.999
		c17.672,0,31.999-14.327,31.999-31.999C447.939,323.662,433.612,309.334,415.94,309.334z M415.94,351.989
		c-5.891,0-10.672-4.781-10.672-10.656c0-5.89,4.781-10.671,10.672-10.671c5.875,0,10.656,4.781,10.656,10.671
		C426.596,347.208,421.815,351.989,415.94,351.989z"/>
	<path style="fill:#ED5564;" d="M444.908,263.539c1.938-1.922,3.125-4.594,3.125-7.547c0-5.891-4.781-10.656-10.671-10.656
		c-2.938,0-5.609,1.188-7.547,3.125L323.942,354.333c-2.438,1.969-3.999,4.969-3.999,8.327c0,5.891,4.765,10.672,10.655,10.672
		c2.953,0,5.609-1.203,7.547-3.125l0.047,0.047L444.908,263.539z"/>
</g>
<g>
</g>
<g>
</g>
<g>
</g>
<g>
</g>
<g>
</g>
<g>
</g>
<g>
</g>
<g>
</g>
<g>
</g>
<g>
</g>
<g>
</g>
<g>
</g>
<g>
</g>
<g>
</g>
<g>
</g>
</svg>
