<?xml version="1.0" encoding="iso-8859-1"?>
<!-- Generator: Adobe Illustrator 19.0.0, SVG Export Plug-In . SVG Version: 6.00 Build 0)  -->
<svg version="1.1" id="Layer_1" xmlns="http://www.w3.org/2000/svg" xmlns:xlink="http://www.w3.org/1999/xlink" x="0px" y="0px"
	 viewBox="0 0 428.98 428.98" style="enable-background:new 0 0 428.98 428.98;" xml:space="preserve">
<g>
	<path style="fill:#AFDAF9;" d="M195.415,308.53v31.17c0,5.29-4.29,9.58-9.58,9.58h-31.18c-5.29,0-9.58-4.29-9.58-9.58v-31.17
		c0-5.29,4.29-9.58,9.58-9.58h31.18C191.125,298.95,195.415,303.24,195.415,308.53z"/>
	<path style="fill:#B3B3B3;" d="M272.825,235.45v31.17c0,5.29-4.29,9.58-9.58,9.58h-31.17c-5.29,0-9.58-4.29-9.58-9.58v-31.17
		c0-5.29,4.29-9.58,9.58-9.58h31.17C268.535,225.87,272.825,230.16,272.825,235.45z"/>
	<path style="fill:#F9DD53;" d="M117.995,235.45v31.17c0,5.29-4.28,9.58-9.57,9.58h-31.18c-5.29,0-9.58-4.29-9.58-9.58v-31.17
		c0-5.29,4.29-9.58,9.58-9.58h31.18C113.715,225.87,117.995,230.16,117.995,235.45z"/>
	<path style="fill:#88C5FC;" d="M195.415,162.37v31.17c0,5.29-4.29,9.58-9.58,9.58h-31.18c-5.29,0-9.58-4.29-9.58-9.58v-31.17
		c0-5.29,4.29-9.58,9.58-9.58h31.18C191.125,152.79,195.415,157.08,195.415,162.37z"/>
	<path style="fill:#88C5FC;" d="M246.665,79.7v50.34h-14.6c-5.29,0-9.58-4.29-9.58-9.58V89.28c0-5.29,4.29-9.58,9.58-9.58H246.665z"
		/>
	<path style="fill:#B3B3B3;" d="M117.995,162.37v31.17c0,5.29-4.28,9.58-9.57,9.58h-31.18c-5.29,0-9.58-4.29-9.58-9.58v-31.17
		c0-5.29,4.29-9.58,9.58-9.58h31.18C113.715,152.79,117.995,157.08,117.995,162.37z"/>
	<path style="fill:#F9DD53;" d="M272.825,308.53v31.17c0,5.29-4.29,9.58-9.58,9.58h-31.17c-5.29,0-9.58-4.29-9.58-9.58v-31.17
		c0-5.29,4.29-9.58,9.58-9.58h31.17C268.535,298.95,272.825,303.24,272.825,308.53z"/>
	<path style="fill:#F9A18A;" d="M195.415,235.45v31.17c0,5.29-4.29,9.58-9.58,9.58h-31.18c-5.29,0-9.58-4.29-9.58-9.58v-31.17
		c0-5.29,4.29-9.58,9.58-9.58h31.18C191.125,225.87,195.415,230.16,195.415,235.45z"/>
	<path style="fill:#666666;" d="M300.735,378.74v19.31c0,17.08-13.85,30.93-30.94,30.93H70.685c-17.09,0-30.94-13.85-30.94-30.93
		v-19.32h260.99V378.74z M177.745,404.98c0-1.97-0.8-3.9-2.2-5.3c-1.39-1.39-3.32-2.2-5.3-2.2c-1.97,0-3.91,0.81-5.3,2.2
		c-1.4,1.4-2.2,3.33-2.2,5.3c0,1.98,0.8,3.91,2.2,5.31c1.39,1.39,3.33,2.19,5.3,2.19s3.91-0.8,5.3-2.19
		C176.945,408.89,177.745,406.96,177.745,404.98z"/>
	<path style="fill:#F2F2F2;" d="M300.735,168.75v209.98H39.745V50.25h206.92V79.7h-14.6c-5.29,0-9.58,4.29-9.58,9.58v31.18
		c0,5.29,4.29,9.58,9.58,9.58h14.6v22.75h-14.6c-5.29,0-9.58,4.28-9.58,9.57v31.18c0,5.29,4.29,9.58,9.58,9.58h31.18
		c5.29,0,9.58-4.29,9.58-9.58v-24.79L300.735,168.75L300.735,168.75z M272.825,339.7v-31.17c0-5.29-4.29-9.58-9.58-9.58h-31.17
		c-5.29,0-9.58,4.29-9.58,9.58v31.17c0,5.29,4.29,9.58,9.58,9.58h31.17C268.535,349.28,272.825,344.99,272.825,339.7z
		 M272.825,266.62v-31.17c0-5.29-4.29-9.58-9.58-9.58h-31.17c-5.29,0-9.58,4.29-9.58,9.58v31.17c0,5.29,4.29,9.58,9.58,9.58h31.17
		C268.535,276.2,272.825,271.91,272.825,266.62z M195.415,339.7v-31.17c0-5.29-4.29-9.58-9.58-9.58h-31.18
		c-5.29,0-9.58,4.29-9.58,9.58v31.17c0,5.29,4.29,9.58,9.58,9.58h31.18C191.125,349.28,195.415,344.99,195.415,339.7z
		 M195.415,266.62v-31.17c0-5.29-4.29-9.58-9.58-9.58h-31.18c-5.29,0-9.58,4.29-9.58,9.58v31.17c0,5.29,4.29,9.58,9.58,9.58h31.18
		C191.125,276.2,195.415,271.91,195.415,266.62z M195.415,193.54v-31.17c0-5.29-4.29-9.58-9.58-9.58h-31.18
		c-5.29,0-9.58,4.29-9.58,9.58v31.17c0,5.29,4.29,9.58,9.58,9.58h31.18C191.125,203.12,195.415,198.83,195.415,193.54z
		 M195.415,120.46V89.29c0-5.3-4.29-9.58-9.58-9.58h-31.18c-5.29,0-9.58,4.28-9.58,9.58v31.17c0,5.29,4.29,9.58,9.58,9.58h31.18
		C191.125,130.04,195.415,125.75,195.415,120.46z M117.995,339.7v-31.17c0-5.29-4.28-9.58-9.57-9.58h-31.18
		c-5.29,0-9.58,4.29-9.58,9.58v31.17c0,5.29,4.29,9.58,9.58,9.58h31.18C113.715,349.28,117.995,344.99,117.995,339.7z
		 M117.995,266.62v-31.17c0-5.29-4.28-9.58-9.57-9.58h-31.18c-5.29,0-9.58,4.29-9.58,9.58v31.17c0,5.29,4.29,9.58,9.58,9.58h31.18
		C113.715,276.2,117.995,271.91,117.995,266.62z M117.995,193.54v-31.17c0-5.29-4.28-9.58-9.57-9.58h-31.18
		c-5.29,0-9.58,4.29-9.58,9.58v31.17c0,5.29,4.29,9.58,9.58,9.58h31.18C113.715,203.12,117.995,198.83,117.995,193.54z
		 M117.995,120.46V89.29c0-5.3-4.28-9.58-9.57-9.58h-31.18c-5.29,0-9.58,4.28-9.58,9.58v31.17c0,5.29,4.29,9.58,9.58,9.58h31.18
		C113.715,130.04,117.995,125.75,117.995,120.46z"/>
	<path style="fill:#666666;" d="M300.365,26.18h-38.48c-8.4,0-15.22,6.81-15.22,15.22v8.85H39.745V30.94
		C39.745,13.85,53.595,0,70.685,0h199.11C285.265,0,298.085,11.35,300.365,26.18z M206.995,25.83c0-4.14-3.36-7.5-7.5-7.5h-58.5
		c-4.14,0-7.5,3.36-7.5,7.5s3.36,7.5,7.5,7.5h58.5C203.635,33.33,206.995,29.97,206.995,25.83z"/>
	<path style="fill:#F9A18A;" d="M272.825,168.75v24.79c0,5.29-4.29,9.58-9.58,9.58h-31.18c-5.29,0-9.58-4.29-9.58-9.58v-31.18
		c0-5.29,4.29-9.57,9.58-9.57h14.6v0.74c0,8.4,6.82,15.22,15.22,15.22L272.825,168.75L272.825,168.75z"/>
	<path style="fill:#4D4D4D;" d="M199.495,18.33c4.14,0,7.5,3.36,7.5,7.5s-3.36,7.5-7.5,7.5h-58.5c-4.14,0-7.5-3.36-7.5-7.5
		s3.36-7.5,7.5-7.5C140.995,18.33,199.495,18.33,199.495,18.33z"/>
	<path style="fill:#F9DD53;" d="M195.415,89.29v31.17c0,5.29-4.29,9.58-9.58,9.58h-31.18c-5.29,0-9.58-4.29-9.58-9.58V89.29
		c0-5.3,4.29-9.58,9.58-9.58h31.18C191.125,79.71,195.415,83.99,195.415,89.29z"/>
	<path style="fill:#4D4D4D;" d="M175.545,399.68c1.4,1.4,2.2,3.33,2.2,5.3c0,1.98-0.8,3.91-2.2,5.31c-1.39,1.39-3.33,2.19-5.3,2.19
		s-3.91-0.8-5.3-2.19c-1.4-1.4-2.2-3.33-2.2-5.31c0-1.97,0.8-3.9,2.2-5.3c1.39-1.39,3.33-2.2,5.3-2.2
		C172.225,397.48,174.155,398.29,175.545,399.68z"/>
	<path style="fill:#F9A18A;" d="M117.995,308.53v31.17c0,5.29-4.28,9.58-9.57,9.58h-31.18c-5.29,0-9.58-4.29-9.58-9.58v-31.17
		c0-5.29,4.29-9.58,9.58-9.58h31.18C113.715,298.95,117.995,303.24,117.995,308.53z"/>
	<path style="fill:#F9A18A;" d="M117.995,89.29v31.17c0,5.29-4.28,9.58-9.57,9.58h-31.18c-5.29,0-9.58-4.29-9.58-9.58V89.29
		c0-5.3,4.29-9.58,9.58-9.58h31.18C113.715,79.71,117.995,83.99,117.995,89.29z"/>
	<g>
		<path style="opacity:0.23;fill:#F2F2F2;enable-background:new    ;" d="M300.735,74.69v323.35c0,17.09-13.85,30.94-30.94,30.94
			h-153.43l18.5-35.54l7.65-14.71L274.035,126L300.735,74.69z"/>
		<path style="opacity:0.23;fill:#F2F2F2;enable-background:new    ;" d="M162.255,0l-21.48,41.59l-4.47,8.66l-10.65,20.62
			l-17.81,34.5L97.195,126l-55.21,106.92l-2.24,4.34V30.94C39.745,13.85,53.595,0,70.685,0H162.255z"/>
	</g>
	<path style="fill:#E6E6E6;" d="M374.015,26.18h-112.13c-8.4,0-15.22,6.81-15.22,15.22v112.13c0,8.4,6.82,15.22,15.22,15.22h112.13
		c8.41,0,15.22-6.82,15.22-15.22V41.4C389.235,32.99,382.425,26.18,374.015,26.18z M317.955,143.17c-8.47,0-16.4-2.3-23.2-6.32
		c-13.48-7.95-22.51-22.61-22.51-39.39c0-25.24,20.46-45.71,45.71-45.71c6.76,0,13.18,1.47,18.95,4.11
		c15.79,7.2,26.76,23.12,26.76,41.6C363.665,122.71,343.195,143.17,317.955,143.17z"/>
	<path style="fill:#88C5FC;" d="M317.955,51.75c25.24,0,45.71,20.47,45.71,45.71c0,25.25-20.47,45.71-45.71,45.71
		c-25.25,0-45.71-20.46-45.71-45.71C272.245,72.22,292.705,51.75,317.955,51.75z M339.925,77.62c0.65-1.85,0.9-3.03,0.9-3.03
		s-1.18,0.25-3.03,0.9c-0.93,0.32-2.02,0.75-3.24,1.27c-1.22,0.53-2.54,1.17-3.95,1.9c-1.39,0.76-2.89,1.59-4.39,2.54
		c-1.5,0.95-3.04,2.01-4.58,3.15c-3.08,2.29-6.12,4.95-8.99,7.81c-2.85,2.87-5.51,5.92-7.79,9c-2.29,3.07-4.2,6.16-5.69,8.97
		c-1.48,2.8-2.53,5.33-3.18,7.18c-0.66,1.85-0.91,3.03-0.91,3.03s1.18-0.25,3.03-0.91c1.85-0.65,4.38-1.7,7.18-3.18
		c2.81-1.49,5.9-3.4,8.97-5.69c3.08-2.28,6.13-4.95,9-7.79c2.86-2.87,5.52-5.92,7.81-8.99c1.14-1.54,2.19-3.08,3.15-4.58
		c0.95-1.5,1.78-3,2.54-4.39c0.73-1.41,1.37-2.73,1.9-3.95C339.175,79.64,339.605,78.55,339.925,77.62z"/>
	<path style="fill:#FFFFFF;" d="M340.825,74.59c0,0-0.25,1.18-0.9,3.03c-0.32,0.93-0.75,2.02-1.27,3.24
		c-0.53,1.22-1.17,2.54-1.9,3.95c-0.76,1.39-1.59,2.89-2.54,4.39c-0.96,1.5-2.01,3.04-3.15,4.58c-2.29,3.07-4.95,6.12-7.81,8.99
		c-0.07,0.07-0.13,0.13-0.2,0.2c-2.81,2.76-5.79,5.36-8.8,7.59c-3.07,2.29-6.16,4.2-8.97,5.69c-2.8,1.48-5.33,2.53-7.18,3.18
		c-1.85,0.66-3.03,0.91-3.03,0.91s0.25-1.18,0.91-3.03c0.65-1.85,1.7-4.38,3.18-7.18c1.49-2.81,3.4-5.9,5.69-8.97
		c2.23-3.01,4.82-5.99,7.6-8.8c0.06-0.07,0.12-0.13,0.19-0.2c2.87-2.86,5.91-5.52,8.99-7.81c1.54-1.14,3.08-2.2,4.58-3.15
		c1.5-0.95,3-1.78,4.39-2.54c1.41-0.73,2.73-1.37,3.95-1.9c1.22-0.52,2.31-0.95,3.24-1.27
		C339.645,74.84,340.825,74.59,340.825,74.59z"/>
	<path style="fill:#EF5848;" d="M340.825,74.59c0,0-0.25,1.18-0.9,3.03c-0.32,0.93-0.75,2.02-1.27,3.24
		c-0.53,1.22-1.17,2.54-1.9,3.95c-0.76,1.39-1.59,2.89-2.54,4.39c-0.96,1.5-2.01,3.04-3.15,4.58c-2.29,3.07-4.95,6.12-7.81,8.99
		c-0.07,0.07-0.13,0.13-0.2,0.2l-10.6-10.61c0.06-0.07,0.12-0.13,0.19-0.2c2.87-2.86,5.91-5.52,8.99-7.81
		c1.54-1.14,3.08-2.2,4.58-3.15c1.5-0.95,3-1.78,4.39-2.54c1.41-0.73,2.73-1.37,3.95-1.9c1.22-0.52,2.31-0.95,3.24-1.27
		C339.645,74.84,340.825,74.59,340.825,74.59z"/>
	<g>
		<path style="opacity:0.23;fill:#F2F2F2;enable-background:new    ;" d="M389.235,41.4v112.13c0,8.4-6.81,15.22-15.22,15.22h-95.86
			l2.35-4.51l14.25-27.39l42.15-80.99l15.45-29.68h21.66C382.425,26.18,389.235,32.99,389.235,41.4z"/>
	</g>
</g>
<g>
</g>
<g>
</g>
<g>
</g>
<g>
</g>
<g>
</g>
<g>
</g>
<g>
</g>
<g>
</g>
<g>
</g>
<g>
</g>
<g>
</g>
<g>
</g>
<g>
</g>
<g>
</g>
<g>
</g>
</svg>
