<?xml version="1.0" encoding="iso-8859-1"?>
<!-- Generator: Adobe Illustrator 19.0.0, SVG Export Plug-In . SVG Version: 6.00 Build 0)  -->
<svg version="1.1" id="Layer_1" xmlns="http://www.w3.org/2000/svg" xmlns:xlink="http://www.w3.org/1999/xlink" x="0px" y="0px"
	 viewBox="0 0 512 512" style="enable-background:new 0 0 512 512;" xml:space="preserve">
<path style="fill:#707384;" d="M370.759,512H141.241c-14.626,0-26.483-11.857-26.483-26.483V26.483
	C114.759,11.857,126.615,0,141.241,0h229.517c14.626,0,26.483,11.857,26.483,26.483v459.034
	C397.241,500.143,385.385,512,370.759,512z"/>
<rect x="132.414" y="70.621" style="fill:#FFD782;" width="247.172" height="370.759"/>
<g>
	<path style="fill:#464655;" d="M282.483,44.138h-52.966c-4.875,0-8.828-3.953-8.828-8.828l0,0c0-4.875,3.953-8.828,8.828-8.828
		h52.966c4.875,0,8.828,3.953,8.828,8.828l0,0C291.31,40.185,287.358,44.138,282.483,44.138z"/>
	<path style="fill:#464655;" d="M194.207,44.138L194.207,44.138c-4.875,0-8.828-3.953-8.828-8.828l0,0
		c0-4.875,3.953-8.828,8.828-8.828l0,0c4.875,0,8.828,3.953,8.828,8.828l0,0C203.034,40.185,199.082,44.138,194.207,44.138z"/>
	<circle style="fill:#464655;" cx="256" cy="476.69" r="17.655"/>
</g>
<path style="fill:#FFFFFF;" d="M256,176.552L256,176.552c-9.751,0-17.655-7.904-17.655-17.655V70.621h35.31v88.276
	C273.655,168.648,265.751,176.552,256,176.552z"/>
<path style="fill:#FF6464;" d="M291.31,176.552L291.31,176.552c-9.751,0-17.655-7.904-17.655-17.655V70.621h35.31v88.276
	C308.966,168.648,301.062,176.552,291.31,176.552z"/>
<path style="fill:#FFFFFF;" d="M326.621,176.552L326.621,176.552c-9.751,0-17.655-7.904-17.655-17.655V70.621h35.31v88.276
	C344.276,168.648,336.372,176.552,326.621,176.552z"/>
<g>
	<path style="fill:#FF6464;" d="M361.931,176.552L361.931,176.552c-9.751,0-17.655-7.904-17.655-17.655V70.621h35.31v88.276
		C379.586,168.648,371.682,176.552,361.931,176.552z"/>
	<path style="fill:#FF6464;" d="M220.69,176.552L220.69,176.552c-9.751,0-17.655-7.904-17.655-17.655V70.621h35.31v88.276
		C238.345,168.648,230.441,176.552,220.69,176.552z"/>
</g>
<path style="fill:#FFFFFF;" d="M185.379,176.552L185.379,176.552c-9.751,0-17.655-7.904-17.655-17.655V70.621h35.31v88.276
	C203.034,168.648,195.13,176.552,185.379,176.552z"/>
<path style="fill:#FF6464;" d="M150.069,176.552L150.069,176.552c-9.751,0-17.655-7.904-17.655-17.655V70.621h35.31v88.276
	C167.724,168.648,159.82,176.552,150.069,176.552z"/>
<g>
	<path style="fill:#FFC36E;" d="M379.586,158.897c0,9.75-7.905,17.655-17.655,17.655s-17.655-7.905-17.655-17.655
		c0,9.75-7.905,17.655-17.655,17.655s-17.655-7.905-17.655-17.655c0,9.75-7.905,17.655-17.655,17.655
		c-9.75,0-17.655-7.905-17.655-17.655c0,9.75-7.905,17.655-17.655,17.655s-17.655-7.905-17.655-17.655
		c0,9.75-7.905,17.655-17.655,17.655c-9.75,0-17.655-7.905-17.655-17.655c0,9.75-7.905,17.655-17.655,17.655
		c-9.75,0-17.655-7.905-17.655-17.655c0,9.75-7.905,17.655-17.655,17.655c-9.75,0-17.655-7.905-17.655-17.655v30.398
		c5.215,3.041,11.196,4.913,17.655,4.913c6.426,0,12.459-1.726,17.655-4.738c5.196,3.012,11.229,4.738,17.655,4.738
		c6.426,0,12.459-1.726,17.655-4.738c5.196,3.012,11.229,4.738,17.655,4.738c6.426,0,12.459-1.726,17.655-4.738
		c5.196,3.012,11.229,4.738,17.655,4.738s12.459-1.726,17.655-4.738c5.196,3.012,11.229,4.738,17.655,4.738
		c6.427,0,12.459-1.726,17.655-4.738c5.196,3.012,11.229,4.738,17.655,4.738s12.459-1.726,17.655-4.738
		c5.196,3.012,11.229,4.738,17.655,4.738c6.46,0,12.44-1.87,17.655-4.911V158.897z"/>
	<path style="fill:#FFC36E;" d="M344.276,308.966H167.724c-4.875,0-8.828-3.953-8.828-8.828v-70.621
		c0-4.875,3.953-8.828,8.828-8.828h176.552c4.875,0,8.828,3.953,8.828,8.828v70.621
		C353.103,305.013,349.151,308.966,344.276,308.966z"/>
</g>
<circle style="fill:#FF6464;" cx="203.034" cy="264.828" r="26.483"/>
<path style="fill:#FFFFFF;" d="M326.621,256H256c-4.875,0-8.828-3.953-8.828-8.828l0,0c0-4.875,3.953-8.828,8.828-8.828h70.621
	c4.875,0,8.828,3.953,8.828,8.828l0,0C335.448,252.047,331.496,256,326.621,256z"/>
<path style="fill:#F0AA5A;" d="M326.621,291.31H256c-4.875,0-8.828-3.953-8.828-8.828l0,0c0-4.875,3.953-8.828,8.828-8.828h70.621
	c4.875,0,8.828,3.953,8.828,8.828l0,0C335.448,287.358,331.496,291.31,326.621,291.31z"/>
<path style="fill:#FFC36E;" d="M344.276,414.897H167.724c-4.875,0-8.828-3.953-8.828-8.828v-70.621c0-4.875,3.953-8.828,8.828-8.828
	h176.552c4.875,0,8.828,3.953,8.828,8.828v70.621C353.103,410.944,349.151,414.897,344.276,414.897z"/>
<circle style="fill:#FF6464;" cx="203.034" cy="370.759" r="26.483"/>
<path style="fill:#FFFFFF;" d="M326.621,361.931H256c-4.875,0-8.828-3.953-8.828-8.828l0,0c0-4.875,3.953-8.828,8.828-8.828h70.621
	c4.875,0,8.828,3.953,8.828,8.828l0,0C335.448,357.978,331.496,361.931,326.621,361.931z"/>
<path style="fill:#F0AA5A;" d="M326.621,397.241H256c-4.875,0-8.828-3.953-8.828-8.828l0,0c0-4.875,3.953-8.828,8.828-8.828h70.621
	c4.875,0,8.828,3.953,8.828,8.828l0,0C335.448,393.289,331.496,397.241,326.621,397.241z"/>
<g>
</g>
<g>
</g>
<g>
</g>
<g>
</g>
<g>
</g>
<g>
</g>
<g>
</g>
<g>
</g>
<g>
</g>
<g>
</g>
<g>
</g>
<g>
</g>
<g>
</g>
<g>
</g>
<g>
</g>
</svg>
