<?xml version="1.0" encoding="iso-8859-1"?>
<!-- Generator: Adobe Illustrator 19.0.0, SVG Export Plug-In . SVG Version: 6.00 Build 0)  -->
<svg version="1.1" id="Layer_1" xmlns="http://www.w3.org/2000/svg" xmlns:xlink="http://www.w3.org/1999/xlink" x="0px" y="0px"
	 viewBox="0 0 512 512" style="enable-background:new 0 0 512 512;" xml:space="preserve">
<g>
	<path style="fill:#41BBBE;" d="M0,465.966C0,491.285,20.715,512,46.034,512H257.79c25.319,0,46.034-20.715,46.034-46.034v-55.241
		L151.912,388.22L0,410.725V465.966z"/>
	<path style="fill:#41BBBE;" d="M303.824,46.034C303.824,20.715,283.109,0,257.79,0H46.034C20.715,0,0,20.715,0,46.034v21.483
		l151.912,22.505l151.912-22.505V46.034z"/>
</g>
<path style="fill:#EA4820;" d="M416.352,318.688v67.516c0,4.662,3.779,8.44,8.44,8.44s8.44-3.778,8.44-8.44v-67.516H416.352z"/>
<circle style="fill:#086063;" cx="151.912" cy="461.363" r="16.879"/>
<rect y="67.516" style="fill:#D0EEEF;" width="303.824" height="343.209"/>
<g>
	<path style="fill:#20AAB0;" d="M151.912,385.407H67.516c-4.661,0-8.44-3.778-8.44-8.44s3.779-8.44,8.44-8.44h84.396
		c4.661,0,8.44,3.778,8.44,8.44S156.573,385.407,151.912,385.407z"/>
	<path style="fill:#20AAB0;" d="M236.308,351.648H67.516c-4.661,0-8.44-3.778-8.44-8.44s3.779-8.44,8.44-8.44h168.791
		c4.661,0,8.44,3.778,8.44,8.44S240.969,351.648,236.308,351.648z"/>
</g>
<path style="fill:#086063;" d="M187.515,42.198H116.31c-4.661,0-8.44-3.778-8.44-8.44s3.779-8.44,8.44-8.44h71.205
	c4.661,0,8.44,3.778,8.44,8.44S192.176,42.198,187.515,42.198z"/>
<path style="fill:#F76720;" d="M143.473,251.937v57.514c0,4.662,3.779,8.44,8.44,8.44s8.44-3.778,8.44-8.44v-57.514H143.473z"/>
<polygon style="fill:#06484A;" points="454.314,228.362 478.936,228.362 424.791,133.018 370.646,228.362 395.269,228.362 
	337.582,329.941 512,329.941 "/>
<polygon style="fill:#086063;" points="176.187,179.669 196.431,179.669 151.912,101.275 107.393,179.669 127.638,179.669 
	80.207,263.189 223.617,263.189 "/>
<g>
</g>
<g>
</g>
<g>
</g>
<g>
</g>
<g>
</g>
<g>
</g>
<g>
</g>
<g>
</g>
<g>
</g>
<g>
</g>
<g>
</g>
<g>
</g>
<g>
</g>
<g>
</g>
<g>
</g>
</svg>
